<svg width="458" height="352" viewBox="0 0 458 352" fill="none" xmlns="http://www.w3.org/2000/svg">
<g clip-path="url(#clip0_33515_805)">
<path d="M152.3 78L149.5 82.9H146.8L145.9 84.3H148.7L142.6 94.7C141.3 96.9 142.2 98.9 144.7 98.9C146.5 98.9 148.4 97.6 150.3 95.8C150.3 99.6 155.6 100.3 158.9 96.3H159.6C161.4 96.3 164.2 95.2 165.8 93.4C165.6 93 165.1 92.5 164.7 92.4L164.5 92.6C163.1 94.1 161.5 94.8 159.9 94.8L162.7 90C164.5 86.9 162.8 83.9 160 83.9C157.7 83.9 155.9 84.8 154.1 87.8L152.6 90.4L151.4 92.5L151.2 92.7C149 95.2 146.9 97.2 145.6 97.2C144.9 97.2 144.6 96.7 145.3 95.6L151.8 84.4H154.3L155 82.9H152.5L155.3 78H152.3ZM159.8 85.8C160.8 85.9 161.2 87.1 160.2 88.8L158 92.5H157.9C156.9 92.5 156.1 93.3 156.1 94.3C156.1 94.7 156.2 95 156.4 95.3V95.4C155 97.8 151.5 97.4 153.3 94.3L155.6 90.4L157.1 88C158 86.4 159.1 85.8 159.8 85.8ZM181.8 78L179 82.9H176.3L175.4 84.3H178.2L172 94.7C170.7 96.9 171.6 98.9 174.1 98.9C175.3 98.9 176.6 98.3 178 97.3L177.2 98.6H180.2L184.8 90.7C189.4 84.9 191.5 85.7 190.2 87.9L186.3 94.6C185 96.8 185.9 98.8 188.4 98.8C190.2 98.8 192.2 97.4 194.1 95.6C194.2 97.5 195.8 98.8 198.2 98.8C201.6 98.8 205 96.2 207.5 93.3C207.3 92.9 206.8 92.4 206.4 92.3L206.2 92.5C204 95 201.2 97 199.1 97C197.2 97 196.1 95.9 197.5 93.4L197.8 92.9C199.7 93.7 203.4 93.3 205.7 89.5L206.1 88.8C207.7 86 206.2 84 203.7 84C201.3 84 199.3 85.3 198 87.4L195.1 92.4L194.9 92.6C192.7 95.1 190.6 97.1 189.3 97.1C188.6 97.1 188.3 96.6 188.9 95.5L193.3 88C194.6 85.7 193.4 84.1 191.7 84.1C190.4 84.1 189 84.8 187.5 86.4L192.3 78.1H189.3L180.9 92.5L180.7 92.7C178.5 95.2 176.4 97.2 175.1 97.2C174.4 97.2 174.1 96.7 174.8 95.6L181.3 84.4H183.8L184.7 83H182.2L185 78.1L181.8 78ZM203.1 86.2C204.1 86.1 204.6 87.1 203.6 88.8L203.2 89.5C201.8 91.9 199.8 91.9 198.7 91.5L200.6 88.1C201.3 86.9 202.3 86.3 203.1 86.2ZM247.4 80.8C245.7 82.3 245.5 84 246.6 85.4L246.9 85.7C245.6 87.6 243.8 90.1 241.8 92.4L241.6 92.6C240.2 94.1 238.6 94.8 237 94.8L239.8 90C241.6 86.9 239.9 83.9 237.1 83.9C234.8 83.9 233 84.8 231.2 87.8L229.7 90.4L228.5 92.5L228.3 92.7C225.8 95.5 223.7 97.4 221.3 98.4L228.1 87H226.3C226.3 85.8 225 84.1 223.1 84.1C221.5 84.1 219.2 85.4 217.9 87.5L213.7 94.7C212.4 96.9 213.3 98.9 215.8 98.9C216.6 98.9 217.7 98.5 218.7 97.9L217.9 99.3C213.8 100.5 211.3 102.2 211.3 104.4C211.3 107.3 215.7 107.9 217.9 104.2L220.2 100.3C222.6 99.6 225 98.2 227.4 95.8C227.4 99.6 232.7 100.4 236 96.3H236.7C238.5 96.3 241.3 95.2 242.9 93.4C244.3 91.7 245.5 90.2 247.9 87L248.3 87.5C248.7 88 248.8 88.6 248.5 89.2L245.3 94.7C244 96.9 244.9 98.9 247.4 98.9C248.9 98.9 250.6 97.9 252.2 96.5C252.1 97.9 253.1 98.9 254.8 98.9C255.6 98.9 256.7 98.5 257.7 97.9L256.9 99.3C252.8 100.5 250.3 102.2 250.3 104.4C250.3 107.3 254.7 107.9 256.9 104.2L259.2 100.3C261.7 99.5 264.1 98.1 266.6 95.7C266.7 97.6 268.3 98.9 270.7 98.9C273.2 98.9 275.6 97.5 277.7 95.7C277.6 99.6 283 100.4 286.3 96.3H287C287.9 96.3 289.2 96 290.4 95.4C289.6 97.5 290.3 98.9 292.1 98.9C293.8 98.9 295.6 97.4 297.1 96C296.8 97.6 297.8 98.9 299.7 98.9C302.2 98.9 305.1 96.3 307.6 93.4C309.3 91.4 310.8 89.4 311.9 88C310.7 91.1 311.3 96.7 308.5 96.7C307.5 96.7 307.1 95.6 307.1 95.6L305.2 96.6C305.2 96.6 305.8 99 308.5 99C308.8 99 309.1 99 309.3 98.9H309.4C312.5 98.5 315.5 96.1 317.8 93.5C317.6 93 317.1 92.6 316.7 92.5L316.5 92.7C315.4 93.9 314.2 95 312.9 95.9C313.9 93.1 313.7 88.7 315.5 84.9L313.2 83.7C312 85.4 309.2 89.3 306.5 92.4L306.3 92.6C304.1 95.1 302 97.1 300.7 97.1C300 97.1 299.7 96.6 300.4 95.5L306.8 84.3H303.8L298.4 93.6C296.1 95.7 294.3 96.8 293.8 96.6C293 96.3 293.8 95.2 294.2 94.5L300.1 84.3H297.1L292.4 92.4L292.2 92.6C290.8 94.1 289.2 94.8 287.6 94.8L290.4 90C292.2 86.9 290.5 83.9 287.7 83.9C285.4 83.9 283.6 84.8 281.8 87.8L280.3 90.4L279.1 92.5L278.9 92.7C276.7 95.2 273.9 97.2 271.8 97.2C269.9 97.2 268.8 96.1 270.2 93.6L270.5 93.1C272.4 93.9 276.1 93.5 278.4 89.7L278.8 89C280.4 86.2 278.9 84.2 276.4 84.2C274 84.2 272 85.5 270.7 87.6L267.8 92.6L267.6 92.8C265.1 95.6 263 97.5 260.6 98.5L267.4 87.1H265.6C265.6 85.9 264.3 84.2 262.4 84.2C260.8 84.2 258.5 85.5 257.2 87.6L254.3 92.5L254.1 92.7C251.9 95.2 249.8 97.2 248.5 97.2C247.8 97.2 247.5 96.7 248.2 95.6L251.2 90.4C252.2 88.6 251.8 87.5 250.8 86.4L249.1 84.4C248.7 83.9 248.7 83.3 249.3 82.7L247.4 80.8ZM237.1 85.8C238.1 85.9 238.6 87.1 237.5 88.8L235.3 92.5H235.2C234.2 92.5 233.4 93.3 233.4 94.3C233.4 94.7 233.5 95 233.7 95.3V95.4C232.3 97.8 228.8 97.4 230.6 94.3L232.9 90.4L234.4 88C235.3 86.4 236.3 85.8 237.1 85.8ZM287.3 85.8C288.3 85.9 288.8 87.1 287.7 88.8L285.5 92.5H285.4C284.4 92.5 283.6 93.3 283.6 94.3C283.6 94.7 283.7 95 283.9 95.3V95.4C282.5 97.8 279 97.4 280.8 94.3L283.1 90.4L284.6 88C285.4 86.4 286.5 85.8 287.3 85.8ZM275.6 86.2C276.6 86.1 277.1 87.1 276.1 88.8L275.7 89.5C274.2 91.9 272.3 91.9 271.2 91.5L273.1 88.1C273.8 86.9 274.8 86.3 275.6 86.2ZM223.2 86.4C224.2 86.4 224.9 87.3 224 88.8L221.7 92.8C219.9 95.7 218 97.1 216.8 97.1C216.1 97.1 215.8 96.6 216.5 95.5L220.7 88.2C221.4 87 222.4 86.4 223.2 86.4ZM262.1 86.4C263.1 86.4 263.8 87.3 262.9 88.8L260.6 92.8C258.8 95.7 256.9 97.1 255.7 97.1C255 97.1 254.7 96.6 255.4 95.5L259.6 88.2C260.3 87 261.3 86.4 262.1 86.4ZM216.8 101.3L215.4 103.7C214.8 104.8 213.7 104.6 213.7 103.8C213.7 103.1 214.5 102.2 216.8 101.3ZM255.7 101.3L254.3 103.7C253.7 104.8 252.6 104.6 252.6 103.8C252.7 103.1 253.4 102.2 255.7 101.3ZM101 89.7H129.9V91.6H101V89.7ZM328.1 89.7H357V91.6H328.1V89.7Z" fill="#766458"/>
<path d="M322.7 37.4V45.1H301.9V0.400002H322.7V8H309.5V18.8H320V26.5H309.5V37.4H322.7ZM289.9 0.400002H297.5V45.1H289.9V23.1L286.9 34.5H279.5L276.5 23.1V45.1H268.9V0.400002H276.5L283.3 22L289.9 0.400002ZM258 8H252.5V37.3H258V8ZM261 0.400002C263.5 0.400002 265.7 2.5 265.7 5.1V40.4C265.7 43 263.5 45.1 261 45.1H249.6C247 45.1 244.9 42.9 244.9 40.4V5.1C244.9 2.5 247 0.400002 249.6 0.400002H261ZM233 28.6L240.7 26.8V40.4C240.7 43 238.5 45.1 236 45.1H224.6C222 45.1 219.9 42.9 219.9 40.4V5.1C219.9 2.5 222 0.400002 224.6 0.400002H236C238.5 0.400002 240.7 2.5 240.7 5.1V14.2L233 16V8H227.5V37.3H233V28.6ZM216.2 37.4V45.1H198V0.400002H205.6V37.4H216.2ZM194.8 37.4V45.1H174V0.400002H194.8V8H181.6V18.8H192.1V26.5H181.6V37.4H194.8ZM162.6 0.400002H170.3L169 45.1H154.5L152.5 26.6L150.5 45.1H136L135 0.400002H142.6L143.2 37.4H144L148.8 0.400002H156.4L161.3 37.4H162.1L162.6 0.400002Z" fill="#81B3D3"/>
<path d="M380.4 215.7L405.8 141.7H431L456.7 215.7H436.5L432.8 202.3H404.2L400.4 215.7H380.4ZM416.1 163.6L408.6 188.1H428.7L421.2 163.6C420.8 162.4 420.4 161.2 420 160C419.7 158.7 419.4 157.5 419.2 156.2C419 155.7 418.9 155.3 418.9 154.9C418.8 154.4 418.7 154 418.7 153.6C418.6 154 418.5 154.4 418.4 154.9C418.3 155.3 418.2 155.7 418.2 156.2C418.1 156.4 418.1 156.5 418.1 156.7C418.1 156.8 418.1 156.9 418 157C417.8 158.1 417.5 159.3 417.2 160.4C416.7 161.4 416.4 162.5 416.1 163.6ZM298.4 215.7V141.7H317.9L345.8 179.7C346.5 180.8 347.2 182 347.8 183.2C348.5 184.4 349.2 185.6 349.8 186.8L351.2 189.8C351.7 190.8 352.1 191.8 352.6 192.7C352.5 191.9 352.4 191.1 352.3 190.3C352.2 189.5 352.1 188.7 352.1 187.9C351.9 186.3 351.8 184.7 351.8 183.1C351.7 181.4 351.7 179.8 351.7 178.1V141.8H371.1V215.8H351.7L323.6 177.6C322.8 176.7 322.1 175.6 321.4 174.3C320.7 173 320 171.6 319.4 170.2C319 169.2 318.5 168.3 318 167.3C317.6 166.4 317.3 165.4 316.8 164.5C317.2 166.9 317.5 169.3 317.7 171.8C317.9 174.3 318 176.8 318 179.2V215.7H298.4ZM210.4 160.8C214 154.2 218.9 149.2 225.3 145.7C231.7 142.2 238.3 140.5 245.2 140.5C246.1 140.5 247.1 140.5 248 140.6C249 140.7 250 140.8 250.9 140.8C253.8 141.2 256.6 141.9 259.4 142.9C262.3 143.9 265 145.2 267.5 146.8C273 150.4 277.3 155.1 280.3 161.1C283.3 167 284.8 173.1 284.8 179.6C284.8 180.4 284.8 181.2 284.7 182C284.7 182.8 284.6 183.5 284.5 184.3C284.3 186 284 187.6 283.6 189.2C283.2 190.8 282.7 192.3 282.1 193.8C278.8 201.3 273.8 207.2 266.9 211.3C260 215.4 252.8 217.5 245.2 217.5C244.7 217.5 244.1 217.5 243.6 217.4H242.1C239.4 217.2 236.8 216.7 234.2 216C231.6 215.3 229.1 214.3 226.8 213.1C220.3 209.7 215.2 204.9 211.5 198.6C207.8 192.3 205.9 185.7 205.9 178.9C205.9 177.9 205.9 176.9 206 175.9C206.1 174.9 206.2 173.8 206.5 172.8C206.9 170.8 207.4 168.7 208.1 166.8C208.5 164.6 209.4 162.7 210.4 160.8ZM263.2 187.4C263.4 186.6 263.6 185.8 263.8 185C264 184.1 264.2 183.3 264.3 182.4C264.4 181.9 264.4 181.3 264.4 180.8C264.5 180.3 264.5 179.8 264.5 179.3C264.5 178.8 264.5 178.4 264.4 177.9V176.5C264 173.2 263 170 261.4 166.9C259.8 163.8 257.5 161.4 254.7 159.7C253.9 159.3 253.2 159 252.4 158.7C251.6 158.4 250.9 158.1 250.1 157.9C249.3 157.7 248.6 157.6 247.8 157.6C247 157.4 246.3 157.4 245.5 157.4C241.6 157.4 237.9 158.6 234.6 161.1C231.3 163.6 228.9 166.9 227.6 171L227.4 171.5V172C227.2 172.7 227 173.5 226.8 174.2C226.6 174.9 226.5 175.6 226.3 176.4L226.1 178V180.4C226.1 180.6 226.1 180.9 226.2 181.2C226.4 185.3 227.7 189.2 229.9 192.9C232.2 196.5 235.4 198.9 239.4 200.1L240.8 200.6C241.3 200.7 241.8 200.8 242.3 200.8L243.7 201H245.1C249.2 201 252.9 199.8 256.1 197.4C259.4 194.8 261.8 191.5 263.2 187.4ZM181.1 208.8C177.5 211.3 173.5 213 169.3 213.9C165.1 214.8 160.7 215.4 156.4 215.6C155.2 215.7 153.9 215.7 152.7 215.7H128.9V141.7H154C155.2 141.7 156.4 141.7 157.6 141.8C161.8 142 165.9 142.6 169.9 143.5C174 144.4 177.8 146.2 181.2 148.6C185.5 151.6 188.9 155.6 191.3 160.6C193.7 165.6 195.1 170.7 195.4 175.9C195.5 176.4 195.5 176.8 195.5 177.3V180.2C195.3 185.7 194 191 191.6 196.1C189.2 201.2 185.6 205.5 181.1 208.8ZM148.7 199.1C148.9 199.1 149.2 199.1 149.4 199.2H150.2C150.5 199.2 150.8 199.2 151 199.3H154.1C155 199.2 155.8 199.1 156.5 199.1C158.5 198.9 160.5 198.6 162.4 198.1C164.3 197.6 166.1 196.7 167.6 195.7C170.1 193.9 171.9 191.5 173.1 188.5C174.3 185.4 175 182.2 175 178.9V178C175 177.7 175 177.4 174.9 177.1C174.7 174.2 174 171.3 172.8 168.6C171.6 165.8 169.9 163.6 167.7 162C166.1 160.7 164.2 159.8 162.2 159.3C160.2 158.8 158.2 158.6 156.2 158.5H148.7V199.1ZM68.8 215.7V141.7H114.2V157.8H88.6V170.8H112.6V186.6H88.6V199.1H114.1V215.7H68.8ZM9.4 191.9C9.5 192 9.5 192.1 9.5 192.1C9.6 192.1 9.7 192.1 9.7 192.2C11.8 194.5 14.2 196.7 16.8 198.7C19.4 200.6 22.5 201.7 25.9 201.8C26 201.8 26.1 201.8 26.1 201.9H26.4C26.5 201.9 26.6 201.9 26.6 202H27.9C28.3 201.9 28.6 201.8 28.9 201.8C30.1 201.6 31.3 201.1 32.4 200.4C33.6 199.7 34.5 198.9 35.1 197.8L35.3 197.3L35.5 196.8C35.7 196.3 35.8 195.8 35.8 195.3C35.9 194.8 35.9 194.4 35.9 194C35.9 191.9 35 190.2 33.1 188.8C31.4 187.4 29.4 186.2 27.3 185.4C26.5 185.1 25.7 184.9 24.9 184.7C24.2 184.5 23.4 184.3 22.7 184.1H22.5C22.4 184 22.3 184 22.3 184C18.5 183.1 14.9 181.6 11.6 179.6C8.3 177.5 6 174.5 4.7 170.7C4.5 169.9 4.2 169.1 4 168.3C3.8 167.4 3.7 166.5 3.7 165.6C3.7 165.5 3.7 165.2 3.7 165V162.2C3.8 161.6 3.9 161 4 160.3C4.2 158.7 4.6 157.2 5.2 155.7C5.7 154.2 6.4 152.8 7.3 151.5C9.8 147.4 13 144.5 16.8 142.7C20.7 140.9 24.9 140 29.1 140C30.1 140 31.1 140.1 32.1 140.2C33.2 140.3 34.3 140.4 35.4 140.5C38.2 141 41 141.8 43.6 142.8C46.4 143.9 48.9 145.2 51.3 146.6L44.9 160.9C42.8 159.4 40.6 158 38.3 156.8C36 155.6 33.5 155.1 30.8 155.1H29.9C28.1 155.3 26.5 156.1 24.9 157.5C23.4 158.8 22.6 160.2 22.6 161.8V162.5C22.7 162.7 22.8 163 22.9 163.2C23.1 163.7 23.3 164.2 23.7 164.7C24.1 165.2 24.5 165.6 25 166C25.9 166.7 27.1 167.4 28.7 168C30.3 168.5 32 169.1 33.8 169.6C35.3 170 36.7 170.4 38.1 170.8C39.5 171.1 40.7 171.4 41.6 171.7C45.9 173.2 49.2 175.8 51.4 179.5C53.6 183.1 54.7 186.9 54.8 190.9V191.5C54.8 192 54.8 192.4 54.7 192.9V194.2C54.2 198.2 52.9 202.1 50.8 205.7C48.7 209.3 45.9 212.1 42.3 214.1C41 214.7 39.6 215.3 38.2 215.7C36.8 216.1 35.4 216.4 34 216.7C32.9 216.9 31.7 217.1 30.5 217.2C29.4 217.4 28.3 217.4 27.1 217.4H25.7C21.1 217.2 16.5 216.2 12 214.4C7.5 212.5 3.5 209.9 0 206.7L9.4 191.9ZM351 339C351 338.7 351.1 338.4 351.2 338.1C351.3 337.8 351.5 337.5 351.7 337.3C351.9 337.1 352.2 336.9 352.5 336.7C352.8 336.6 353.2 336.5 353.6 336.5C354.1 336.5 354.5 336.6 354.9 336.8C355.3 337 355.7 337.2 356 337.5C356.2 337.8 356.4 338.1 356.6 338.5C356.7 338.9 356.8 339.3 356.8 339.8C356.8 340.7 356.6 341.4 356.3 342.2C356 342.9 355.6 343.6 355 344.1C354.7 344.4 354.5 344.6 354.2 344.8C353.9 345 353.6 345.2 353.3 345.3C353 345.4 352.8 345.6 352.6 345.7C352.5 345.8 352.4 345.8 352.2 345.9L350.8 343.9C351 343.8 351.3 343.7 351.6 343.5C351.9 343.4 352.2 343.2 352.5 343C352.8 342.8 353 342.5 353.2 342.2C353.4 341.9 353.5 341.6 353.5 341.2C352.9 341.2 352.3 341 351.8 340.6C351.2 340.3 351 339.8 351 339ZM358.8 339C358.8 338.7 358.9 338.4 359 338.1C359.1 337.8 359.3 337.5 359.5 337.3C359.7 337.1 360 336.9 360.3 336.7C360.6 336.6 361 336.5 361.4 336.5C361.9 336.5 362.3 336.6 362.7 336.8C363.1 337 363.5 337.2 363.8 337.5C364 337.8 364.2 338.1 364.4 338.5C364.5 338.9 364.6 339.3 364.6 339.8C364.6 340.6 364.5 341.4 364.1 342.2C363.8 342.9 363.4 343.6 362.8 344.1C362.5 344.4 362.3 344.6 362 344.8C361.7 345 361.4 345.2 361.1 345.3C360.8 345.4 360.6 345.6 360.4 345.7C360.3 345.8 360.2 345.8 360 345.9L358.7 343.9C358.9 343.8 359.2 343.7 359.5 343.5C359.8 343.4 360.1 343.2 360.4 343C360.7 342.8 360.9 342.5 361.1 342.2C361.3 341.9 361.4 341.6 361.4 341.2C360.8 341.2 360.2 341 359.7 340.6C359 340.3 358.8 339.8 358.8 339ZM94.2 280.3C94.2 280.6 94.1 280.9 94 281.2C93.9 281.5 93.7 281.8 93.5 282C93 282.5 92.3 282.8 91.6 282.8C91.2 282.8 90.7 282.7 90.3 282.5C89.9 282.3 89.5 282.1 89.2 281.8C88.9 281.5 88.7 281.1 88.6 280.8C88.5 280.4 88.4 280 88.4 279.5C88.4 278.6 88.6 277.9 88.9 277.1C89.2 276.4 89.6 275.7 90.2 275.2C90.5 274.9 90.7 274.7 91 274.5C91.3 274.3 91.6 274.1 91.9 274C92.2 273.9 92.4 273.7 92.6 273.6C92.8 273.5 92.9 273.5 93 273.4L94.3 275.4C94 275.5 93.7 275.6 93.5 275.8C93.2 275.9 92.9 276.1 92.6 276.3C92.3 276.5 92.1 276.8 91.9 277.1C91.7 277.4 91.6 277.7 91.6 278.1C92.3 278.1 92.8 278.3 93.3 278.7C94 279.1 94.2 279.6 94.2 280.3ZM86.4 280.3C86.4 280.9 86.2 281.5 85.7 282C85.5 282.2 85.2 282.4 84.9 282.6C84.6 282.7 84.2 282.8 83.8 282.8C83.4 282.8 82.9 282.7 82.5 282.5C82.1 282.3 81.7 282.1 81.4 281.8C81.1 281.5 80.9 281.1 80.8 280.8C80.7 280.4 80.6 280 80.6 279.5C80.6 278.6 80.8 277.9 81.1 277.1C81.4 276.4 81.8 275.7 82.4 275.2C82.6 275 82.9 274.7 83.2 274.5C83.5 274.3 83.8 274.1 84.1 274C84.4 273.9 84.6 273.7 84.8 273.6C85 273.5 85.1 273.5 85.2 273.4L86.5 275.4C86.3 275.5 86 275.6 85.7 275.8C85.4 275.9 85.1 276.1 84.8 276.3C84.5 276.5 84.3 276.8 84.1 277.1C83.9 277.4 83.8 277.7 83.8 278.1C84.5 278.1 85 278.3 85.5 278.7C86.1 279.1 86.4 279.6 86.4 280.3ZM331.7 337.2H335.5L347.3 316.6H343.5L331.7 337.2ZM331.6 338.7C330.4 338.7 329.4 339.7 329.4 340.9C329.4 342.1 330.3 343.1 331.6 343.1C332.8 343.1 333.8 342.2 333.8 340.9C333.8 339.6 332.8 338.7 331.6 338.7ZM305.2 333.2L306.3 331.3C310.7 325.2 313.6 326.9 312.3 329.2L310.5 332.3C309.4 334.2 306 335.6 305.2 333.2ZM330.3 336.1C330.1 335.5 329.4 334.9 328.9 334.8L328.6 335.1C327.3 336.7 325.7 338 324.1 339.2C325.3 335.6 325 330.1 327.4 325.2L324.6 323.7C323 325.8 319.6 330.8 316.2 334.8L315.9 335.1C313.2 338.3 310.5 340.8 308.9 340.8C308.1 340.8 307.3 340 307.3 338.3V336.7C310 337 312.8 335.3 314.5 332.2L315.5 330.5C319 324.5 313.3 322.5 309.4 326L314.8 316.7H311L300.2 335.4C300 335.2 299.8 335.1 299.5 334.9L299.2 335.2C296.5 338.4 293 340.9 290.3 340.9C288 340.9 286.6 339.4 288.3 336.4L292.2 329.6C294.4 325.9 298.2 326.5 296 330.4L295.5 331.3H298.6L299.1 330.4C301.1 326.9 299.2 324.3 296.1 324.3C293 324.3 290.6 325.9 289 328.7L285.3 335.1C285.2 335.1 285.1 335 285.1 335L284.8 335.3C282.1 338.5 279.4 341 277.8 341C277 341 276.5 340.4 277.4 338.9L285.5 324.8H281.7L275 336.5C272.1 339.1 269.9 340.6 269.2 340.2C268.3 339.8 269.2 338.4 269.7 337.6L277.1 324.7H273.3L266 337.4C265.2 338.1 263.6 338.8 262.8 339.3C264 335.7 263.7 330.2 266.1 325.3L263.3 323.8C261.7 325.9 253 337.5 249.6 341.5C249.9 342 250.5 342.4 251 342.8C253.1 340.3 260.3 331.1 261.7 329.3C260.2 333.2 261 340.3 257.4 340.3C256.1 340.3 255.6 338.9 255.6 338.9L253.2 340.1C253.2 340.1 253.9 343.1 257.3 343.1C257.7 343.1 258 343.1 258.4 343H258.5C260.4 342.7 263.1 341.9 264.9 340.6C264.9 342.1 265.8 343.1 267.4 343.1C269.5 343.1 271.8 341.2 273.6 339.5C273.2 341.5 274.4 343.1 276.8 343.1C279.1 343.1 281.8 341.2 284.2 338.7C284.2 341.2 286.2 343.1 289.3 343.1C292.4 343.1 295.4 341.4 298 339.1L295.9 342.8H299.7L304 335.3V338.3C304 341.5 304.6 343.2 307.7 343.2C310.8 343.2 314.4 339.9 317.5 336.2C319.6 333.7 321.5 331.1 322.9 329.3C321.4 333.2 322.2 340.3 318.6 340.3C317.3 340.3 316.8 338.9 316.8 338.9L314.4 340.1C314.4 340.1 315.1 343.1 318.5 343.1C318.9 343.1 319.2 343.1 319.6 343H319.7C323.7 342.5 327.5 339.4 330.3 336.1ZM215.7 335H215.5C214.3 335 213.3 336 213.3 337.3C213.3 337.8 213.4 338.2 213.7 338.6V338.7C211.9 341.7 207.6 341.2 209.8 337.2L212.7 332.2L214.5 329.1C217.2 324.6 220.8 326.4 218.5 330.3L215.7 335ZM190.3 349.2C189.5 350.6 188.2 350.4 188.2 349.4C188.2 348.4 189.1 347.3 192 346.2L190.3 349.2ZM161.5 335.4C159.2 339 157 340.7 155.4 340.7C154.6 340.7 154.1 340.1 155 338.6L160.3 329.4C162.3 325.9 166.4 326.8 164.5 330.2L161.5 335.4ZM149.5 320.7C150.6 318.8 151.9 317.9 152.9 317.9C154.3 317.9 155 318.8 155 320.2C155 323.7 150.6 331 144.8 330.1H144L149.5 320.7ZM242.3 334.8L242 335.1C239.3 338.3 236.6 340.8 235 340.8C234.2 340.8 233.7 340.2 234.6 338.7L240 329.1C241.6 326.2 240.1 324.2 238 324.2C236.4 324.2 234.7 325.1 232.8 327L234.2 324.5H230.4L224.3 335C224.1 334.9 224 334.8 223.8 334.7L223.5 335C221.8 336.9 219.7 337.8 217.8 337.8L221.4 331.7C223.7 327.7 221.6 324 218 324C215.1 324 212.8 325.2 210.7 328.9L208.8 332.1L207.2 334.9C207.1 334.8 207 334.8 206.9 334.7L206.6 335C203.5 338.6 200.8 340.9 197.8 342.2L208.2 324.5H204.4L197.7 336.1C194.8 338.8 192.5 340.3 191.8 340C190.9 339.6 191.8 338.2 192.3 337.4L199.7 324.5H195.9L189.9 334.9C189.8 334.8 189.7 334.8 189.6 334.7L189.3 335C186.6 338.2 183.9 340.7 182.3 340.7C181.5 340.7 181 340.1 181.9 338.6L187.3 329C188.9 326.1 187.4 324.1 185.3 324.1C183.7 324.1 182 325 180.1 326.9L181.5 324.4H177.7L171.7 334.8C171.6 334.7 171.5 334.7 171.3 334.6L171 334.9C168.3 338.1 165.6 340.6 164 340.6C163.2 340.6 162.7 340 163.6 338.5L169.7 327.8H167.6C167.7 326.2 166.1 324 163.6 324C161.6 324 158.7 325.6 157.1 328.4L153.2 335.1C152.9 334.9 152.6 334.7 152.4 334.6L152.1 334.9C149.4 338.1 147.3 340.6 143.5 340.6C140.9 340.6 139.4 338 141.6 334.2L142.7 332.3C143.4 332.4 144.1 332.5 144.8 332.5C148.8 332.5 153.4 330.4 156.4 325.2C157.5 323.3 157.9 321.6 157.9 320.1C157.9 316.7 155.7 314.5 152.9 314.5C150.8 314.5 148.4 316 146.7 318.9L140.8 329C138.6 327.8 137.4 325.7 137.4 323.6C137.4 321.9 138.2 320.1 139.8 318.8L138.6 316.6C135.9 318.5 134.7 321.1 134.7 323.6C134.7 326.6 136.4 329.5 139.5 331.1L138.4 333.1C135.7 337.7 137.3 342.8 142.6 342.8C146.8 342.8 148.7 340.9 151.3 338.4C150.5 340.8 151.7 342.8 154.3 342.8C155.8 342.8 157.7 341.8 159.5 340.3C159.7 341.8 160.8 342.8 162.8 342.8C164.6 342.8 166.6 341.7 168.5 340L167.1 342.4H170.9L176.7 332.3C182.5 325.1 185.1 326 183.4 328.8L178.5 337.3C176.9 340.1 178 342.7 181.1 342.7C183.1 342.7 185.4 341.3 187.5 339.3C187 341.4 188 342.7 189.9 342.7C191.7 342.7 193.8 341.2 195.5 339.7L193.4 343.3C188.3 344.8 185.1 346.9 185.1 349.8C185.1 353.4 190.7 354.2 193.4 349.5L196.3 344.5C199.5 343.5 202.6 341.5 205.8 338.3C205.3 343.6 212.3 344.8 216.5 339.4H217.3C218.7 339.4 220.5 338.9 222.2 337.9L219.7 342.3H223.5L229.3 332.2C235.1 325 237.7 325.9 236 328.7L231.1 337.2C229.5 340 230.6 342.6 233.7 342.6C236.8 342.6 240.4 339.3 243.5 335.6C243.4 335.6 242.8 335 242.3 334.8ZM360.9 299.2C358.6 302.9 356.3 304.7 354.7 304.7C353.9 304.7 353.4 304.1 354.3 302.6L359.6 293.4C361.6 289.9 365.7 290.8 363.8 294.2L360.9 299.2ZM324.7 299.4C322.4 303 320.2 304.7 318.6 304.7C317.8 304.7 317.3 304.1 318.2 302.6L323.5 293.4C325.5 289.9 329.6 290.8 327.7 294.2L324.7 299.4ZM284.8 313.2C284 314.6 282.7 314.4 282.7 313.4C282.7 312.4 283.6 311.3 286.5 310.2L284.8 313.2ZM292.8 284.7C293.9 282.8 295.2 281.9 296.2 281.9C302.2 281.9 297.7 296.3 288.1 294.1H287.3L292.8 284.7ZM370.5 298.8L370.2 299.1C367.5 302.3 364.8 304.8 363.2 304.8C362.4 304.8 361.9 304.2 362.8 302.7L375.6 280.6H371.8L366.2 290.2C365.5 289.1 364.3 288.2 362.7 288.2C360.7 288.2 357.8 289.8 356.2 292.6L352.5 299C352.4 299 352.3 298.9 352.3 298.9L352 299.2C349.3 302.4 347 304.9 345.3 304.9C344.5 304.9 344 304.3 344.9 302.8L350.4 293.2C352 290.3 350.5 288.3 348.4 288.3C346.8 288.3 345.1 289.2 343.2 291.1L344.6 288.6H340.8L334.8 299C334.7 298.9 334.6 298.9 334.4 298.8L334.1 299.1C331.4 302.3 328.7 304.8 327.1 304.8C326.3 304.8 325.8 304.2 326.7 302.7L332.8 292H330.7C330.8 290.4 329.2 288.2 326.7 288.2C324.7 288.2 321.8 289.8 320.2 292.6L316.5 298.9L316.3 299.1C313.6 302.3 310.5 304.8 308.9 304.8C308.1 304.8 307.6 304.2 308.5 302.7L312.3 296.1C313.6 293.8 313 292.5 311.8 291L309.7 288.5C309.2 287.8 309.2 287 309.9 286.3L307.9 284.2C305.8 286.1 305.6 288.3 306.9 290L307.2 290.4C305.5 292.8 303.3 296 300.8 298.9C300.9 299 301 299.1 301.1 299.2C298 302.8 295.3 305.1 292.4 306.4L297.2 298.2H293.4L293 298.9C291 302.4 288.7 304.9 285.8 304.9C283.2 304.9 282.8 302.3 285 298.5L286.1 296.6C286.8 296.7 287.5 296.8 288.2 296.8C301.6 296.8 308.1 278.8 296.3 278.8C294.2 278.8 291.8 280.3 290.1 283.2L284.2 293.3C282 292.1 280.8 290 280.8 287.9C280.8 286.2 281.6 284.4 283.2 283.1L282 280.9C279.3 282.8 278.1 285.4 278.1 287.9C278.1 290.9 279.8 293.8 282.9 295.4L281.8 297.4C279.1 302 279.6 307.1 285 307.1C286.6 307.1 287.9 306.6 289.1 305.9L288.1 307.6C283 309.2 279.8 311.2 279.8 314.1C279.8 317.7 285.4 318.5 288.1 313.8L291 308.8C294.9 307.6 298.8 304.9 302.9 300.1C302.8 300 302.8 299.9 302.7 299.7C304.4 297.7 305.8 295.8 308.7 292L309.2 292.6C309.7 293.2 309.9 294 309.4 294.7L305.4 301.6C303.8 304.4 304.9 307 308 307C309.9 307 312.3 305.8 314.4 304C314.4 305.7 315.5 307 317.7 307C319.2 307 321.1 306 322.9 304.5C323.1 306 324.2 307 326.2 307C328 307 330 305.9 331.9 304.2L330.5 306.6H334.3L340.1 296.5C345.9 289.3 348.5 290.2 346.8 293L341.9 301.5C340.3 304.3 341.4 306.9 344.5 306.9C346.5 306.9 348.3 305.5 350.5 303.6C350.3 305.5 351.5 306.9 353.8 306.9C355.3 306.9 357.2 305.9 359 304.4C359.2 305.9 360.3 306.9 362.3 306.9C365.4 306.9 369 303.6 372.1 299.9C371.6 299.6 371 299 370.5 298.8ZM258.2 293.5C260.4 289.8 264.2 290.4 262 294.3L261.5 295.2C259.7 298.3 257.2 298.2 255.8 297.7L258.2 293.5ZM255.2 307.1C259.5 307.1 263.7 303.8 266.9 300.1C266.6 299.6 266 299 265.5 298.8L265.2 299.1C262.5 302.3 259 304.8 256.3 304.8C254 304.8 252.6 303.3 254.3 300.3L254.7 299.6C257.1 300.6 261.7 300.1 264.5 295.2L265 294.3C267 290.8 265.1 288.2 262 288.2C259 288.2 256.5 289.8 254.9 292.6L251.2 298.9C251.2 298.9 251.1 298.9 251.1 298.8L250.8 299.1C248.1 302.3 245.4 304.8 243.8 304.8C243 304.8 242.5 304.2 243.4 302.7L248.8 293.1C250.4 290.2 248.9 288.2 246.8 288.2C245.2 288.2 243.4 289.1 241.5 291.1L247.5 280.6H243.7L233 299.1C232.9 299 232.7 298.9 232.6 298.8L232.3 299.1C229.6 302.3 226.9 304.8 225.3 304.8C224.5 304.8 224 304.2 224.9 302.7L233 288.6H236.1L237.2 286.8H234.1L237.7 280.6H233.9L230.3 286.8H226.9L225.8 288.6H229.2L221.6 301.8C220 304.6 221.1 307.2 224.2 307.2C226.1 307.2 228.1 306 230.1 304.2L228.6 306.8H232.4L238.1 296.8C243.9 289.5 246.5 290.4 244.9 293.2L240 301.7C238.4 304.5 239.5 307.1 242.6 307.1C244.9 307.1 247.4 305.3 249.9 302.9C250.1 305.3 252.1 307.1 255.2 307.1ZM127.7 293.5C129.9 289.8 133.7 290.4 131.5 294.3L131 295.2C129.2 298.3 126.7 298.2 125.3 297.7L127.7 293.5ZM150.8 302.7L156.1 293.5C158.1 290 162.2 290.9 160.3 294.3L157.4 299.5C155.1 303.1 152.9 304.8 151.3 304.8C150.4 304.7 149.9 304.2 150.8 302.7ZM204.8 293.5C207 289.8 210.8 290.4 208.6 294.3L208.1 295.2C206.3 298.3 203.9 298.2 202.4 297.7L204.8 293.5ZM147 303C146.4 305.2 147.6 307.1 150.1 307.1C151.6 307.1 153.5 306.1 155.3 304.6C155.5 306.1 156.6 307.1 158.6 307.1C160.6 307.1 162.8 305.7 165 303.8C164.6 305.8 165.5 307.1 167.4 307.1C169.5 307.1 171.8 305.2 173.6 303.5C173.2 305.5 174.4 307.1 176.8 307.1C179.9 307.1 183.5 303.8 186.6 300.1C186.6 300.1 186.5 300 186.5 299.9C188.6 297.5 190.4 294.9 191.7 293.1C190.2 297 191 304.1 187.4 304.1C186.1 304.1 185.6 302.7 185.6 302.7L183.2 303.9C183.2 303.9 183.9 307 187.3 307C187.7 307 188 307 188.4 306.9H188.5C191.3 306.5 194 304.8 196.4 302.7C196.5 305.2 198.4 307 201.5 307C205.8 307 210 303.7 213.2 300C212.9 299.5 212.3 298.9 211.8 298.7L211.5 299C208.8 302.2 205.3 304.7 202.6 304.7C200.3 304.7 198.9 303.2 200.6 300.2L201 299.5C203.4 300.5 208 300 210.8 295.1L211.3 294.2C213.3 290.7 211.4 288.1 208.3 288.1C205.2 288.1 202.8 289.7 201.2 292.5L197.5 298.8H197.4L197.1 299.1C195.8 300.7 194.2 302 192.6 303.2C193.8 299.6 193.5 294.1 195.9 289.2L193.1 287.7C191.5 289.8 188.1 294.8 184.7 298.8L184.8 298.9L184.7 299.1C182 302.3 179.3 304.8 177.7 304.8C176.9 304.8 176.4 304.2 177.3 302.7L185.4 288.6H181.6L174.9 300.3C172 302.9 169.8 304.4 169.1 304C168.2 303.6 169.1 302.2 169.6 301.4L177 288.5H173.2L167.2 298.9C167.1 298.8 167 298.8 166.9 298.7L166.6 299C163.9 302.2 161.2 304.7 159.6 304.7C158.8 304.7 158.3 304.1 159.2 302.6L165.3 291.9H163.2C163.3 290.3 161.7 288.1 159.2 288.1C157.2 288.1 154.3 289.7 152.7 292.5L148.9 299.1C148.7 299 148.5 298.8 148.3 298.7L148 299C145.3 302.2 142.1 304.7 139.5 304.7C137.2 304.7 135.8 303.2 137.5 300.2L141.4 293.4C143.6 289.7 147.4 290.3 145.2 294.2L144.7 295.1H147.8L148.3 294.2C150.3 290.7 148.4 288.1 145.3 288.1C142.2 288.1 140.2 289.7 138.6 292.5L134.8 298.9C134.7 298.8 134.6 298.8 134.5 298.7L134.2 299C131.5 302.2 128.3 304.7 125.6 304.7C123.3 304.7 121.9 303.2 123.6 300.2L124 299.5C126.4 300.5 131 300 133.8 295.1L134.3 294.2C136.3 290.7 134.4 288.1 131.3 288.1C128.2 288.1 125.8 289.7 124.2 292.5L120.2 299.3C117.8 303.3 119.9 307 124.3 307C127.6 307 130.3 305 133.1 302.4C133 305 135 307 138.2 307C141.6 307.1 144.3 305.3 147 303ZM110.1 289L113.2 283.8C116 279 119.5 281.8 117.6 285.4C116.1 288.1 114 289 110.1 289ZM106 306.3C103.7 306.3 102 305.8 100.6 305C101.3 304.2 101.9 303.3 102.5 302.3L108.9 291.3L109.9 291.4C118.7 293.2 115.2 306.3 106 306.3ZM115.4 290.8C123 288.2 123.6 278.7 116.1 278.7C114 278.7 111.6 280.2 109.9 283.1L99.7 300.7C99.3 301.5 98.8 302.2 98.2 302.8C95.6 299.2 96.3 293.8 100 291.5L98.5 289.6C90.6 294.6 92.9 309.2 106.1 309.2C117.4 309.2 122.6 295.6 115.4 290.8Z" fill="white"/>
</g>
<defs>
<clipPath id="clip0_33515_805">
<rect width="458" height="352" fill="white"/>
</clipPath>
</defs>
</svg>
